<svg xmlns="http://www.w3.org/2000/svg" xmlns:xlink="http://www.w3.org/1999/xlink" width="2000" zoomAndPan="magnify" viewBox="0 0 1500 1499.999933" height="2000" preserveAspectRatio="xMidYMid meet" version="1.0"><defs><g/><clipPath id="e6b87c68e0"><path d="M 348 166.253906 L 1180 166.253906 L 1180 971.753906 L 348 971.753906 Z M 348 166.253906 " clip-rule="nonzero"/></clipPath><clipPath id="9938db615d"><path d="M 305.0625 733 L 516 733 L 516 776 L 305.0625 776 Z M 305.0625 733 " clip-rule="nonzero"/></clipPath><clipPath id="c3c56a85d7"><rect x="0" width="636" y="0" height="291"/></clipPath></defs><g clip-path="url(#e6b87c68e0)"><path fill="#35aa91" d="M 1143.933594 800 L 1066.355469 688.164062 C 1017.652344 620.335938 955.621094 450.335938 953.84375 379.855469 L 953.640625 369.34375 C 953.175781 340.246094 952.652344 307.273438 934.601562 279.429688 C 908.535156 239.203125 851.671875 225.757812 810.402344 250.152344 C 784.425781 265.476562 768.601562 293.441406 766.027344 322.597656 C 724.148438 285.078125 696.195312 231.128906 671.417969 182.851562 L 662.886719 166.253906 L 645.5 173.027344 C 579.613281 198.691406 504.921875 227.789062 456.015625 288.164062 C 402.304688 354.515625 387.949219 443.484375 420.316406 509.535156 L 422.3125 513.605469 L 565.589844 630.5 L 348.113281 630.5 L 348.113281 671.855469 L 616.28125 671.855469 L 725.460938 760.933594 L 751.589844 728.890625 L 455.617188 487.390625 C 438.324219 448.765625 442.503906 405.589844 457.285156 367.933594 L 944.449219 806.660156 C 997.953125 849.636719 1067.574219 880.222656 1138.058594 892.503906 C 1137.648438 896.207031 1136.882812 899.828125 1135.332031 903.253906 C 1124.894531 926.265625 1089.9375 932.257812 1060.71875 930.007812 C 989.71875 924.808594 921.089844 892.042969 872.386719 840.140625 L 866.328125 833.691406 L 442.109375 829.9375 L 441.75 871.292969 L 848.464844 874.882812 C 903.707031 930.535156 979.472656 965.515625 1057.699219 971.261719 C 1062.707031 971.621094 1067.613281 971.804688 1072.402344 971.804688 C 1121.0625 971.804688 1158.117188 953.097656 1172.980469 920.363281 C 1194.550781 872.886719 1159.074219 821.796875 1143.933594 800 Z M 831.390625 285.773438 C 853.339844 272.789062 885.992188 280.492188 899.882812 301.917969 C 911.46875 319.816406 911.875 344.199219 912.28125 370.007812 L 912.34375 373.230469 C 878.105469 375.410156 843.121094 368.515625 812.109375 353.679688 L 812.390625 353.53125 C 800.359375 331.03125 809.421875 298.738281 831.390625 285.773438 Z M 476.847656 329.902344 C 480.457031 324.414062 484.203125 319.089844 488.164062 314.1875 C 526.226562 267.191406 586.679688 240.628906 643.179688 218.335938 C 670.441406 270.894531 702.425781 327.375 753.617188 366.292969 C 799.328125 401.019531 858.734375 418.246094 916.035156 414.363281 C 920.089844 438.820312 927.394531 467.839844 936.78125 498.339844 L 850.332031 498.339844 L 850.332031 539.695312 L 950.523438 539.695312 C 957.722656 560.046875 965.570312 580.394531 973.84375 600.027344 L 916.480469 600.027344 L 916.480469 641.382812 L 992.390625 641.382812 C 1005.777344 669.257812 1019.542969 693.859375 1032.570312 711.996094 L 1109.96875 823.570312 C 1115.40625 831.40625 1120.65625 839.5625 1125.226562 847.757812 C 1068.476562 834.785156 1013.664062 809.230469 971.226562 775.171875 Z M 476.847656 329.902344 " fill-opacity="1" fill-rule="nonzero"/></g><g clip-path="url(#9938db615d)"><path fill="#35aa91" d="M 305.421875 733.726562 L 515.304688 733.726562 L 515.304688 775.082031 L 305.421875 775.082031 Z M 305.421875 733.726562 " fill-opacity="1" fill-rule="nonzero"/></g><g transform="matrix(1, 0, 0, 1, 433, 1053)"><g clip-path="url(#c3c56a85d7)"><g fill="#35aa91" fill-opacity="1"><g transform="translate(2.641359, 207.141716)"><g><path d="M 83.71875 -193.1875 C 93.988281 -193.1875 104.03125 -191.691406 113.84375 -188.703125 C 123.65625 -185.710938 130.9375 -182.757812 135.6875 -179.84375 L 142.59375 -175.25 L 125.109375 -140.75 C 123.734375 -141.664062 121.816406 -142.851562 119.359375 -144.3125 C 116.910156 -145.769531 112.3125 -147.722656 105.5625 -150.171875 C 98.8125 -152.628906 92.523438 -153.859375 86.703125 -153.859375 C 79.492188 -153.859375 73.9375 -152.320312 70.03125 -149.25 C 66.125 -146.1875 64.171875 -142.050781 64.171875 -136.84375 C 64.171875 -134.238281 65.085938 -131.820312 66.921875 -129.59375 C 68.765625 -127.375 71.910156 -125 76.359375 -122.46875 C 80.804688 -119.9375 84.710938 -117.90625 88.078125 -116.375 C 91.453125 -114.84375 96.664062 -112.539062 103.71875 -109.46875 C 115.988281 -104.257812 126.453125 -97.171875 135.109375 -88.203125 C 143.773438 -79.234375 148.109375 -69.070312 148.109375 -57.71875 C 148.109375 -46.832031 146.148438 -37.328125 142.234375 -29.203125 C 138.328125 -21.078125 132.960938 -14.710938 126.140625 -10.109375 C 119.316406 -5.515625 111.765625 -2.109375 103.484375 0.109375 C 95.210938 2.335938 86.242188 3.453125 76.578125 3.453125 C 68.304688 3.453125 60.179688 2.609375 52.203125 0.921875 C 44.234375 -0.765625 37.5625 -2.875 32.1875 -5.40625 C 26.820312 -7.9375 21.992188 -10.425781 17.703125 -12.875 C 13.410156 -15.332031 10.269531 -17.40625 8.28125 -19.09375 L 5.296875 -21.625 L 26.90625 -57.953125 C 28.75 -56.421875 31.28125 -54.46875 34.5 -52.09375 C 37.71875 -49.71875 43.425781 -46.535156 51.625 -42.546875 C 59.832031 -38.554688 67.078125 -36.5625 73.359375 -36.5625 C 91.609375 -36.5625 100.734375 -42.773438 100.734375 -55.203125 C 100.734375 -57.804688 100.082031 -60.21875 98.78125 -62.4375 C 97.476562 -64.664062 95.175781 -66.890625 91.875 -69.109375 C 88.582031 -71.328125 85.671875 -73.085938 83.140625 -74.390625 C 80.609375 -75.703125 76.46875 -77.695312 70.71875 -80.375 C 64.96875 -83.0625 60.710938 -85.09375 57.953125 -86.46875 C 46.453125 -92.144531 37.554688 -99.238281 31.265625 -107.75 C 24.984375 -116.257812 21.84375 -125.421875 21.84375 -135.234375 C 21.84375 -152.253906 28.128906 -166.164062 40.703125 -176.96875 C 53.273438 -187.78125 67.613281 -193.1875 83.71875 -193.1875 Z M 83.71875 -193.1875 "/></g></g></g><g fill="#35aa91" fill-opacity="1"><g transform="translate(137.863594, 207.141716)"><g><path d="M 20.703125 -117.984375 L 20.703125 -161.90625 L 61.40625 -161.90625 L 61.40625 -117.984375 L 86.25 -117.984375 L 86.25 -86.9375 L 61.40625 -86.9375 L 61.40625 -49.453125 C 61.40625 -38.566406 64.472656 -33.125 70.609375 -33.125 C 72.140625 -33.125 73.75 -33.425781 75.4375 -34.03125 C 77.125 -34.644531 78.425781 -35.257812 79.34375 -35.875 L 80.71875 -36.796875 L 90.84375 -3.90625 C 82.101562 1 72.140625 3.453125 60.953125 3.453125 C 53.285156 3.453125 46.691406 2.113281 41.171875 -0.5625 C 35.648438 -3.25 31.46875 -6.851562 28.625 -11.375 C 25.789062 -15.90625 23.757812 -20.660156 22.53125 -25.640625 C 21.3125 -30.628906 20.703125 -35.957031 20.703125 -41.625 L 20.703125 -86.9375 L 3.6875 -86.9375 L 3.6875 -117.984375 Z M 20.703125 -117.984375 "/></g></g></g><g fill="#35aa91" fill-opacity="1"><g transform="translate(209.38279, 207.141716)"><g><path d="M 13.796875 0 L 13.796875 -117.984375 L 54.5 -117.984375 L 54.5 -100.96875 L 54.96875 -100.96875 C 55.269531 -101.582031 55.765625 -102.347656 56.453125 -103.265625 C 57.148438 -104.179688 58.644531 -105.789062 60.9375 -108.09375 C 63.238281 -110.394531 65.691406 -112.460938 68.296875 -114.296875 C 70.910156 -116.140625 74.285156 -117.789062 78.421875 -119.25 C 82.566406 -120.707031 86.785156 -121.4375 91.078125 -121.4375 C 95.523438 -121.4375 99.894531 -120.820312 104.1875 -119.59375 C 108.476562 -118.363281 111.617188 -117.132812 113.609375 -115.90625 L 116.828125 -114.078125 L 99.8125 -79.578125 C 94.75 -83.867188 87.695312 -86.015625 78.65625 -86.015625 C 73.75 -86.015625 69.53125 -84.941406 66 -82.796875 C 62.476562 -80.648438 59.988281 -78.039062 58.53125 -74.96875 C 57.070312 -71.90625 56.035156 -69.300781 55.421875 -67.15625 C 54.804688 -65.007812 54.5 -63.320312 54.5 -62.09375 L 54.5 0 Z M 13.796875 0 "/></g></g></g><g fill="#35aa91" fill-opacity="1"><g transform="translate(304.589363, 207.141716)"><g><path d="M 17.703125 -183.75 C 22.460938 -188.507812 28.132812 -190.890625 34.71875 -190.890625 C 41.3125 -190.890625 46.984375 -188.507812 51.734375 -183.75 C 56.492188 -179 58.875 -173.328125 58.875 -166.734375 C 58.875 -160.140625 56.492188 -154.46875 51.734375 -149.71875 C 46.984375 -144.96875 41.3125 -142.59375 34.71875 -142.59375 C 28.132812 -142.59375 22.460938 -144.96875 17.703125 -149.71875 C 12.953125 -154.46875 10.578125 -160.140625 10.578125 -166.734375 C 10.578125 -173.328125 12.953125 -179 17.703125 -183.75 Z M 13.796875 -117.984375 L 13.796875 0 L 54.5 0 L 54.5 -117.984375 Z M 13.796875 -117.984375 "/></g></g></g><g fill="#35aa91" fill-opacity="1"><g transform="translate(354.720944, 207.141716)"><g><path d="M 21.84375 -14.59375 C 10.8125 -26.632812 5.296875 -41.394531 5.296875 -58.875 C 5.296875 -76.351562 10.8125 -91.148438 21.84375 -103.265625 C 32.882812 -115.378906 46.914062 -121.4375 63.9375 -121.4375 C 79.570312 -121.4375 92.453125 -116.53125 102.578125 -106.71875 L 102.578125 -197.78125 L 143.28125 -197.78125 L 143.28125 0 L 103.03125 0 L 103.03125 -13.34375 L 102.578125 -13.34375 C 92.453125 -2.144531 79.570312 3.453125 63.9375 3.453125 C 46.914062 3.453125 32.882812 -2.5625 21.84375 -14.59375 Z M 56.453125 -78.875 C 51.171875 -73.664062 48.53125 -67 48.53125 -58.875 C 48.53125 -50.75 51.054688 -44.117188 56.109375 -38.984375 C 61.171875 -33.847656 67.84375 -31.28125 76.125 -31.28125 C 84.09375 -31.28125 90.644531 -33.882812 95.78125 -39.09375 C 100.925781 -44.3125 103.5 -50.90625 103.5 -58.875 C 103.5 -67 100.851562 -73.664062 95.5625 -78.875 C 90.269531 -84.09375 83.789062 -86.703125 76.125 -86.703125 C 68.300781 -86.703125 61.742188 -84.09375 56.453125 -78.875 Z M 56.453125 -78.875 "/></g></g></g><g fill="#35aa91" fill-opacity="1"><g transform="translate(492.472898, 207.141716)"><g><path d="M 133.15625 -53.359375 L 47.609375 -53.359375 C 47.609375 -45.078125 50.289062 -38.941406 55.65625 -34.953125 C 61.019531 -30.972656 66.847656 -28.984375 73.140625 -28.984375 C 79.734375 -28.984375 84.945312 -29.863281 88.78125 -31.625 C 92.613281 -33.382812 96.984375 -36.875 101.890625 -42.09375 L 131.328125 -27.375 C 119.054688 -6.820312 98.660156 3.453125 70.140625 3.453125 C 52.359375 3.453125 37.101562 -2.640625 24.375 -14.828125 C 11.65625 -27.023438 5.296875 -41.707031 5.296875 -58.875 C 5.296875 -76.050781 11.65625 -90.769531 24.375 -103.03125 C 37.101562 -115.300781 52.359375 -121.4375 70.140625 -121.4375 C 88.847656 -121.4375 104.066406 -116.03125 115.796875 -105.21875 C 127.523438 -94.40625 133.390625 -78.957031 133.390625 -58.875 C 133.390625 -56.113281 133.3125 -54.273438 133.15625 -53.359375 Z M 48.75 -75.890625 L 93.609375 -75.890625 C 92.679688 -82.023438 90.265625 -86.738281 86.359375 -90.03125 C 82.453125 -93.332031 77.429688 -94.984375 71.296875 -94.984375 C 64.546875 -94.984375 59.175781 -93.21875 55.1875 -89.6875 C 51.207031 -86.164062 49.0625 -81.566406 48.75 -75.890625 Z M 48.75 -75.890625 "/></g></g></g></g></g></svg>